HIERARCHY
ROOT hip
{
  OFFSET 0 90.174 2.4664
  CHANNELS 6 Xposition Yposition Zposition Zrotation Xrotation Yrotation
  JOINT abdomen
  {
    OFFSET 0 -1.186 -1.5018
    CHANNELS 6 Xposition Yposition Zposition Zrotation Xrotation Yrotation
    JOINT abdomen2
    {
      OFFSET 0 9.964 0.2134
      CHANNELS 6 Xposition Yposition Zposition Zrotation Xrotation Yrotation
      JOINT chest
      {
        OFFSET 0 13.134 -3.2573
        CHANNELS 6 Xposition Yposition Zposition Zrotation Xrotation Yrotation
        JOINT neck
        {
          OFFSET 0 20.686 -1.6905
          CHANNELS 6 Xposition Yposition Zposition Zrotation Xrotation Yrotation
          JOINT head
          {
            OFFSET 0 7.238 -0.1237
            CHANNELS 6 Xposition Yposition Zposition Zrotation Xrotation Yrotation
            End Site
            {
              OFFSET 0 0 0
            }
          }
        }
        JOINT lCollar
        {
          OFFSET 1.7069 20.075 5.0056
          CHANNELS 6 Xposition Yposition Zposition Zrotation Xrotation Yrotation
          JOINT lShldr
          {
            OFFSET 13.6458 -0.047 -4.849
            CHANNELS 6 Xposition Yposition Zposition Zrotation Xrotation Yrotation
            JOINT lForeArm
            {
              OFFSET 28.3255 -0.9759 2.2888
              CHANNELS 6 Xposition Yposition Zposition Zrotation Xrotation Yrotation
              JOINT lHand
              {
                OFFSET 22.1583 -0.53 10.8316
                CHANNELS 6 Xposition Yposition Zposition Zrotation Xrotation Yrotation
                JOINT lThumb1
                {
                  OFFSET 0.786 0.112 2.5817
                  CHANNELS 6 Xposition Yposition Zposition Zrotation Xrotation Yrotation
                  JOINT lThumb2
                  {
                    OFFSET 0.3601 -0.878 4.2331
                    CHANNELS 6 Xposition Yposition Zposition Zrotation Xrotation Yrotation
                    JOINT lThumb2_End
                    {
                      OFFSET 1.8127 -1.216 2.2227
                      CHANNELS 6 Xposition Yposition Zposition Zrotation Xrotation Yrotation
                      End Site
                      {
                        OFFSET 0.0181 -0.0122 0.0222
                      }
                    }
                  }
                }
                JOINT lCarpal1
                {
                  OFFSET 0.9571 1.114 1.7695
                  CHANNELS 6 Xposition Yposition Zposition Zrotation Xrotation Yrotation
                  JOINT lIndex1
                  {
                    OFFSET 4.1246 0.487 4.1451
                    CHANNELS 6 Xposition Yposition Zposition Zrotation Xrotation Yrotation
                    JOINT lIndex2
                    {
                      OFFSET 3.4052 -1.454 2.7682
                      CHANNELS 6 Xposition Yposition Zposition Zrotation Xrotation Yrotation
                      JOINT lIndex2_End
                      {
                        OFFSET 1.4531 -1.795 1.2713
                        CHANNELS 6 Xposition Yposition Zposition Zrotation Xrotation Yrotation
                        End Site
                        {
                          OFFSET 0.0145 -0.0179 0.0127
                        }
                      }
                    }
                  }
                  JOINT lMid1
                  {
                    OFFSET 5.6954 0.21 2.1184
                    CHANNELS 6 Xposition Yposition Zposition Zrotation Xrotation Yrotation
                    JOINT lMid2
                    {
                      OFFSET 3.9766 -1.54 2.3863
                      CHANNELS 6 Xposition Yposition Zposition Zrotation Xrotation Yrotation
                      JOINT lMid2_End
                      {
                        OFFSET 1.4042 -1.926 1.125
                        CHANNELS 6 Xposition Yposition Zposition Zrotation Xrotation Yrotation
                        End Site
                        {
                          OFFSET 0.014 -0.0193 0.0113
                        }
                      }
                    }
                  }
                }
                JOINT lCarpal2
                {
                  OFFSET 2.0956 0.66 -0.3894
                  CHANNELS 6 Xposition Yposition Zposition Zrotation Xrotation Yrotation
                  JOINT lRing1
                  {
                    OFFSET 5.0395 -0.09 2.4971
                    CHANNELS 6 Xposition Yposition Zposition Zrotation Xrotation Yrotation
                    JOINT lRing2
                    {
                      OFFSET 3.7921 -1.552 1.4806
                      CHANNELS 6 Xposition Yposition Zposition Zrotation Xrotation Yrotation
                      JOINT lRing2_End
                      {
                        OFFSET 1.4655 -1.808 0.9609
                        CHANNELS 6 Xposition Yposition Zposition Zrotation Xrotation Yrotation
                        End Site
                        {
                          OFFSET 0.0147 -0.0181 0.0096
                        }
                      }
                    }
                  }
                  JOINT lPinky1
                  {
                    OFFSET 4.9141 -1.269 0.3591
                    CHANNELS 6 Xposition Yposition Zposition Zrotation Xrotation Yrotation
                    JOINT lPinky2
                    {
                      OFFSET 3.1477 -1.685 0.8462
                      CHANNELS 6 Xposition Yposition Zposition Zrotation Xrotation Yrotation
                      JOINT lPinky2_End
                      {
                        OFFSET 0.8055 -1.585 0.7955
                        CHANNELS 6 Xposition Yposition Zposition Zrotation Xrotation Yrotation
                        End Site
                        {
                          OFFSET 0.0081 -0.0158 0.008
                        }
                      }
                    }
                  }
                }
              }
            }
          }
        }
        JOINT rCollar
        {
          OFFSET -1.7069 20.075 5.0056
          CHANNELS 6 Xposition Yposition Zposition Zrotation Xrotation Yrotation
          JOINT rShldr
          {
            OFFSET -13.6458 -0.047 -4.849
            CHANNELS 6 Xposition Yposition Zposition Zrotation Xrotation Yrotation
            JOINT rForeArm
            {
              OFFSET -28.3255 -0.9759 2.2888
              CHANNELS 6 Xposition Yposition Zposition Zrotation Xrotation Yrotation
              JOINT rHand
              {
                OFFSET -22.1583 -0.53 10.8316
                CHANNELS 6 Xposition Yposition Zposition Zrotation Xrotation Yrotation
                JOINT rThumb1
                {
                  OFFSET -0.786 0.112 2.5817
                  CHANNELS 6 Xposition Yposition Zposition Zrotation Xrotation Yrotation
                  JOINT rThumb2
                  {
                    OFFSET -0.3601 -0.878 4.2331
                    CHANNELS 6 Xposition Yposition Zposition Zrotation Xrotation Yrotation
                    JOINT rThumb2_End
                    {
                      OFFSET -1.8127 -1.216 2.2227
                      CHANNELS 6 Xposition Yposition Zposition Zrotation Xrotation Yrotation
                      End Site
                      {
                        OFFSET -0.0181 -0.0122 0.0222
                      }
                    }
                  }
                }
                JOINT rCarpal1
                {
                  OFFSET -0.9571 1.114 1.7695
                  CHANNELS 6 Xposition Yposition Zposition Zrotation Xrotation Yrotation
                  JOINT rIndex1
                  {
                    OFFSET -4.1246 0.487 4.1451
                    CHANNELS 6 Xposition Yposition Zposition Zrotation Xrotation Yrotation
                    JOINT rIndex2
                    {
                      OFFSET -3.4052 -1.454 2.7682
                      CHANNELS 6 Xposition Yposition Zposition Zrotation Xrotation Yrotation
                      JOINT rIndex2_End
                      {
                        OFFSET -1.4531 -1.795 1.2713
                        CHANNELS 6 Xposition Yposition Zposition Zrotation Xrotation Yrotation
                        End Site
                        {
                          OFFSET -0.0145 -0.018 0.0127
                        }
                      }
                    }
                  }
                  JOINT rMid1
                  {
                    OFFSET -5.6954 0.21 2.1184
                    CHANNELS 6 Xposition Yposition Zposition Zrotation Xrotation Yrotation
                    JOINT rMid2
                    {
                      OFFSET -3.9766 -1.54 2.3863
                      CHANNELS 6 Xposition Yposition Zposition Zrotation Xrotation Yrotation
                      JOINT rMid2_End
                      {
                        OFFSET -1.4042 -1.926 1.125
                        CHANNELS 6 Xposition Yposition Zposition Zrotation Xrotation Yrotation
                        End Site
                        {
                          OFFSET -0.014 -0.0193 0.0113
                        }
                      }
                    }
                  }
                }
                JOINT rCarpal2
                {
                  OFFSET -2.0956 0.66 -0.3894
                  CHANNELS 6 Xposition Yposition Zposition Zrotation Xrotation Yrotation
                  JOINT rRing1
                  {
                    OFFSET -5.0395 -0.09 2.4971
                    CHANNELS 6 Xposition Yposition Zposition Zrotation Xrotation Yrotation
                    JOINT rRing2
                    {
                      OFFSET -3.7921 -1.552 1.4806
                      CHANNELS 6 Xposition Yposition Zposition Zrotation Xrotation Yrotation
                      JOINT rRing2_End
                      {
                        OFFSET -1.4655 -1.808 0.9609
                        CHANNELS 6 Xposition Yposition Zposition Zrotation Xrotation Yrotation
                        End Site
                        {
                          OFFSET -0.0147 -0.0181 0.0096
                        }
                      }
                    }
                  }
                  JOINT rPinky1
                  {
                    OFFSET -4.9141 -1.269 0.3592
                    CHANNELS 6 Xposition Yposition Zposition Zrotation Xrotation Yrotation
                    JOINT rPinky2
                    {
                      OFFSET -3.1477 -1.685 0.8462
                      CHANNELS 6 Xposition Yposition Zposition Zrotation Xrotation Yrotation
                      JOINT rPinky2_End
                      {
                        OFFSET -0.8055 -1.585 0.7955
                        CHANNELS 6 Xposition Yposition Zposition Zrotation Xrotation Yrotation
                        End Site
                        {
                          OFFSET -0.0081 -0.0158 0.008
                        }
                      }
                    }
                  }
                }
              }
            }
          }
        }
      }
    }
  }
  JOINT lThigh
  {
    OFFSET 8.367 -8.2066 0.5982
    CHANNELS 6 Xposition Yposition Zposition Zrotation Xrotation Yrotation
    JOINT lShin
    {
      OFFSET 2.1923 -43.463 -0.4932
      CHANNELS 6 Xposition Yposition Zposition Zrotation Xrotation Yrotation
      JOINT lFoot
      {
        OFFSET 0.7333 -45.8593 -2.6451
        CHANNELS 6 Xposition Yposition Zposition Zrotation Xrotation Yrotation
        End Site
        {
          OFFSET 2.6618 -4.2699 12.3931
        }
      }
    }
  }
  JOINT rThigh
  {
    OFFSET -8.367 -8.2066 0.5982
    CHANNELS 6 Xposition Yposition Zposition Zrotation Xrotation Yrotation
    JOINT rShin
    {
      OFFSET -2.1923 -43.463 -0.4931
      CHANNELS 6 Xposition Yposition Zposition Zrotation Xrotation Yrotation
      JOINT rFoot
      {
        OFFSET -0.7333 -45.8593 -2.6451
        CHANNELS 6 Xposition Yposition Zposition Zrotation Xrotation Yrotation
        End Site
        {
          OFFSET -2.6618 -4.2699 12.3931
        }
      }
    }
  }
}
MOTION
Frames:	4
Frame Time:	0.0333333
0 90.174 2.4664 0 0 -0 0 -1.186 -1.5018 0 0 -0 0 9.964 0.2134 0 0 -0 0 13.134 -3.2573 0 0 -0 0 20.686 -1.6905 0 0 -0 0 7.238 -0.1237 0 0 -0 1.7069 20.075 5.0056 0 0 -0 13.6458 -0.047 -4.849 1.66051 0.0835086 5.75766 28.3255 -0.9759 2.2888 -0.0175111 0.895433 15.7816 22.1583 -0.53 10.8316 7.95139e-016 -1.98785e-016 -0 0.786 0.112 2.5817 5.46658e-016 -3.97569e-016 -0 0.3601 -0.878 4.2331 5.96354e-016 0 -0 1.8127 -1.216 2.2227 3.97569e-016 1.98785e-016 9.54166e-015 0.9571 1.114 1.7695 1.49089e-016 -3.97569e-016 -0 4.1246 0.487 4.1451 6.4605e-016 0 3.18055e-015 3.4052 -1.454 2.7682 5.96354e-016 0 3.18055e-015 1.4531 -1.795 1.2713 8.94531e-016 -1.98785e-016 6.36111e-015 5.6954 0.21 2.1184 6.4605e-016 0 3.18055e-015 3.9766 -1.54 2.3863 5.96354e-016 0 3.18055e-015 1.4042 -1.926 1.125 8.94531e-016 -1.98785e-016 6.36111e-015 2.0956 0.66 -0.3894 1.49089e-016 -3.97569e-016 -0 5.0395 -0.09 2.4971 6.4605e-016 0 3.18055e-015 3.7921 -1.552 1.4806 5.96354e-016 0 3.18055e-015 1.4655 -1.808 0.9609 8.94531e-016 -1.98785e-016 6.36111e-015 4.9141 -1.269 0.3591 6.4605e-016 0 3.18055e-015 3.1477 -1.685 0.8462 5.96354e-016 0 3.18055e-015 0.8055 -1.585 0.7955 8.94531e-016 -1.98785e-016 6.36111e-015 -1.7069 20.075 5.0056 0 0 -0 -13.6458 -0.047 -4.849 -1.4496 0.0636048 -5.0245 -28.3255 -0.9759 2.2888 -1.74811 1.20616 -16.8394 -22.1583 -0.53 10.8316 -1.19271e-015 1.98785e-016 -3.18055e-015 -0.786 0.112 2.5817 -3.97569e-016 1.98785e-016 -3.18055e-015 -0.3601 -0.878 4.2331 -2.98177e-016 1.98785e-016 -3.18055e-015 -1.8127 -1.216 2.2227 -2.98177e-016 3.97569e-016 -0 -0.9571 1.114 1.7695 4.96962e-016 0 -6.36111e-015 -4.1246 0.487 4.1451 -9.93923e-017 3.97569e-016 -0 -3.4052 -1.454 2.7682 -8.94531e-016 5.96354e-016 -0 -1.4531 -1.795 1.2713 -3.97569e-016 3.97569e-016 -0 -5.6954 0.21 2.1184 -9.93923e-017 3.97569e-016 -0 -3.9766 -1.54 2.3863 -8.94531e-016 5.96354e-016 -0 -1.4042 -1.926 1.125 -3.97569e-016 3.97569e-016 -0 -2.0956 0.66 -0.3894 4.96962e-016 0 -6.36111e-015 -5.0395 -0.09 2.4971 -9.93923e-017 3.97569e-016 -0 -3.7921 -1.552 1.4806 -8.94531e-016 5.96354e-016 -0 -1.4655 -1.808 0.9609 -3.97569e-016 3.97569e-016 -0 -4.9141 -1.269 0.3592 -9.93923e-017 3.97569e-016 -0 -3.1477 -1.685 0.8462 -8.94531e-016 5.96354e-016 -0 -0.8055 -1.585 0.7955 -3.97569e-016 3.97569e-016 -0 8.367 -8.2066 0.5982 -4.66115 -1.03232 0.120763 2.1923 -43.463 -0.4932 0.00990601 1.55097 0.177175 0.7333 -45.8593 -2.6451 4.65196 -0.54114 -0.255042 -8.367 -8.2066 0.5982 4.66115 -1.03222 -0.120763 -2.1923 -43.463 -0.4931 -0.00990459 1.5509 -0.177176 -0.7333 -45.8593 -2.6451 -4.65196 -0.541171 0.255041 
-9.01524 69.5589 -0.542922 22.879 -22.8797 0.000484566 -3.55271e-015 -1.186 -1.5018 0.0221765 0.119666 0.0835132 -3.55271e-015 9.964 0.2134 0.044182 0.239363 0.166981 3.55271e-015 13.134 -3.2573 0.0441818 0.239362 0.166981 -3.55271e-015 20.686 -1.6905 3.94769 8.35501 5.30236 3.55271e-015 7.238 -0.1237 -3.01335e-006 5.24892e-006 1.29232e-007 1.7069 20.075 5.0056 1.12243 -0.949673 -8.5922 13.6458 -0.047 -4.849 -18.7743 6.92769 0.0230414 28.3255 -0.9759 2.2888 6.90505 -13.8428 -2.94097 22.1583 -0.53 10.8316 0.236047 -0.0931593 0.00448663 0.786 0.112 2.5817 1.59028e-015 6.36111e-015 -3.18055e-015 0.3601 -0.878 4.2331 4.77083e-015 3.18055e-015 -0 1.8127 -1.216 2.2227 7.95139e-016 0 -3.18055e-015 0.9571 1.114 1.7695 1.59028e-015 3.18055e-015 -3.18055e-015 4.1246 0.487 4.1451 7.15625e-015 6.36111e-015 7.95139e-015 3.4052 -1.454 2.7682 3.18055e-015 6.36111e-015 -3.18055e-015 1.4531 -1.795 1.2713 -3.18055e-015 6.36111e-015 -1.59028e-015 5.6954 0.21 2.1184 7.15625e-015 6.36111e-015 7.95139e-015 3.9766 -1.54 2.3863 3.18055e-015 6.36111e-015 -3.18055e-015 1.4042 -1.926 1.125 -3.18055e-015 6.36111e-015 -1.59028e-015 2.0956 0.66 -0.3894 1.59028e-015 3.18055e-015 -3.18055e-015 5.0395 -0.09 2.4971 7.15625e-015 6.36111e-015 7.95139e-015 3.7921 -1.552 1.4806 3.18055e-015 6.36111e-015 -3.18055e-015 1.4655 -1.808 0.9609 -3.18055e-015 6.36111e-015 -1.59028e-015 4.9141 -1.269 0.3591 7.15625e-015 6.36111e-015 7.95139e-015 3.1477 -1.685 0.8462 3.18055e-015 6.36111e-015 -3.18055e-015 0.8055 -1.585 0.7955 -3.18055e-015 6.36111e-015 -1.59028e-015 -1.7069 20.075 5.0056 12.8104 3.69161 9.43032 -13.6458 -0.047 -4.849 10.9899 1.14688 -7.8911 -28.3255 -0.9759 2.2888 -20.3766 -11.325 -8.78755 -22.1583 -0.53 10.8316 3.65422 -4.33232 -0.192059 -0.786 0.112 2.5817 -1.78906e-015 -3.18055e-015 -3.97569e-015 -0.3601 -0.878 4.2331 -9.34288e-015 -3.18055e-015 1.19271e-015 -1.8127 -1.216 2.2227 1.98785e-015 -6.36111e-015 7.95139e-016 -0.9571 1.114 1.7695 -1.98785e-015 6.36111e-015 -4.17448e-015 -4.1246 0.487 4.1451 -3.97569e-016 -3.18055e-015 1.78906e-015 -3.4052 -1.454 2.7682 -1.19271e-015 3.18055e-015 -7.95139e-016 -1.4531 -1.795 1.2713 -8.34896e-015 3.18055e-015 2.98177e-015 -5.6954 0.21 2.1184 -3.97569e-016 -3.18055e-015 1.78906e-015 -3.9766 -1.54 2.3863 -1.19271e-015 3.18055e-015 -7.95139e-016 -1.4042 -1.926 1.125 -8.34896e-015 3.18055e-015 2.98177e-015 -2.0956 0.66 -0.3894 -1.98785e-015 6.36111e-015 -4.17448e-015 -5.0395 -0.09 2.4971 -3.97569e-016 -3.18055e-015 1.78906e-015 -3.7921 -1.552 1.4806 -1.19271e-015 3.18055e-015 -7.95139e-016 -1.4655 -1.808 0.9609 -8.34896e-015 3.18055e-015 2.98177e-015 -4.9141 -1.269 0.3592 -3.97569e-016 -3.18055e-015 1.78906e-015 -3.1477 -1.685 0.8462 -1.19271e-015 3.18055e-015 -7.95139e-016 -0.8055 -1.585 0.7955 -8.34896e-015 3.18055e-015 2.98177e-015 8.367 -8.2066 0.5982 -8.03236 -16.2893 -0.887414 2.1923 -43.463 -0.4932 -0.406599 21.238 1.79819 0.7333 -45.8593 -2.6451 6.67089 6.44107 -1.09618 -8.367 -8.2066 0.5982 3.02774 -4.99166 -0.755156 -2.1923 -43.463 -0.4931 0.483369 5.44022 -0.970253 -0.7333 -45.8593 -2.6451 -6.60248 13.2402 1.43127 
-16.6481 45.1322 -3.23711 47.2286 -47.2294 0.00135744 -7.10543e-015 -1.186 -1.5018 0.0444363 0.245087 0.175821 3.55271e-015 9.964 0.2134 0.0881502 0.490278 0.351447 3.55271e-015 13.134 -3.2573 0.0881584 0.490284 0.351451 3.55271e-015 20.686 -1.6905 6.39213 17.0052 11.3284 3.55271e-015 7.238 -0.1237 2.67353e-006 2.38856e-006 -3.45978e-006 1.7069 20.075 5.0056 2.00872 -1.88923 -17.7446 13.6458 -0.047 -4.849 -38.9962 13.9821 -6.35411 28.3255 -0.9759 2.2888 4.90794 -23.5406 -25.9497 22.1583 -0.53 10.8316 0.487264 -0.192286 0.00972596 0.786 0.112 2.5817 6.36111e-015 7.95139e-016 -1.59028e-015 0.3601 -0.878 4.2331 6.36111e-015 -7.95139e-016 -1.59028e-015 1.8127 -1.216 2.2227 -6.36111e-015 0 -7.95139e-016 0.9571 1.114 1.7695 6.36111e-015 7.95139e-016 -0 4.1246 0.487 4.1451 1.59028e-014 -1.27222e-014 7.15625e-015 3.4052 -1.454 2.7682 1.27222e-014 7.95139e-016 -0 1.4531 -1.795 1.2713 1.27222e-014 7.95139e-016 -0 5.6954 0.21 2.1184 1.59028e-014 -1.27222e-014 7.15625e-015 3.9766 -1.54 2.3863 1.27222e-014 7.95139e-016 -0 1.4042 -1.926 1.125 1.27222e-014 7.95139e-016 -0 2.0956 0.66 -0.3894 6.36111e-015 7.95139e-016 -0 5.0395 -0.09 2.4971 1.59028e-014 -1.27222e-014 7.15625e-015 3.7921 -1.552 1.4806 1.27222e-014 7.95139e-016 -0 1.4655 -1.808 0.9609 1.27222e-014 7.95139e-016 -0 4.9141 -1.269 0.3591 1.59028e-014 -1.27222e-014 7.15625e-015 3.1477 -1.685 0.8462 1.27222e-014 7.95139e-016 -0 0.8055 -1.585 0.7955 1.27222e-014 7.95139e-016 -0 -1.7069 20.075 5.0056 25.1256 7.28137 19.5897 -13.6458 -0.047 -4.849 24.3442 2.29077 -10.9455 -28.3255 -0.9759 2.2888 -36.8443 -23.4043 0.507515 -22.1583 -0.53 10.8316 7.53953 -8.94815 -0.277063 -0.786 0.112 2.5817 -6.36111e-015 0 -1.11319e-014 -0.3601 -0.878 4.2331 4.84965e-007 3.89995e-007 5.82407e-007 -1.8127 -1.216 2.2227 9.54166e-015 -9.54166e-015 -1.59028e-015 -0.9571 1.114 1.7695 -3.18055e-015 -3.18055e-015 -7.95139e-015 -4.1246 0.487 4.1451 3.18055e-015 1.27222e-014 1.11319e-014 -3.4052 -1.454 2.7682 4.84965e-007 3.89995e-007 5.82407e-007 -1.4531 -1.795 1.2713 6.36111e-015 -6.36111e-015 1.59028e-015 -5.6954 0.21 2.1184 3.18055e-015 1.27222e-014 1.11319e-014 -3.9766 -1.54 2.3863 4.84965e-007 3.89995e-007 5.82407e-007 -1.4042 -1.926 1.125 6.36111e-015 -6.36111e-015 1.59028e-015 -2.0956 0.66 -0.3894 -3.18055e-015 -3.18055e-015 -7.95139e-015 -5.0395 -0.09 2.4971 3.18055e-015 1.27222e-014 1.11319e-014 -3.7921 -1.552 1.4806 4.84965e-007 3.89995e-007 5.82407e-007 -1.4655 -1.808 0.9609 6.36111e-015 -6.36111e-015 1.59028e-015 -4.9141 -1.269 0.3592 3.18055e-015 1.27222e-014 1.11319e-014 -3.1477 -1.685 0.8462 4.84965e-007 3.89995e-007 5.82407e-007 -0.8055 -1.585 0.7955 6.36111e-015 -6.36111e-015 1.59028e-015 8.367 -8.2066 0.5982 -11.1227 -27.9215 -1.77295 2.1923 -43.463 -0.4932 -1.78328 32.7522 3.18242 0.7333 -45.8593 -2.6451 9.08689 18.6807 -2.16858 -8.367 -8.2066 0.5982 0.878105 -12.9711 -1.38172 -2.1923 -43.463 -0.4931 0.883183 17.2921 -1.80498 -0.7333 -45.8593 -2.6451 -8.52109 23.9952 2.49674 
-20.6957 22.4344 -4.76971 69.62 -69.6191 0.0039 -1.77636e-015 -1.186 -1.5018 0.0636771 0.358372 0.263684 0 9.964 0.2134 0.125746 0.717077 0.526949 0 13.134 -3.2573 0.12575 0.717061 0.526948 0 20.686 -1.6905 6.88158 24.481 17.5859 -3.55271e-015 7.238 -0.1237 1.23195e-006 -4.11054e-006 5.04038e-006 1.7069 20.075 5.0056 2.56272 -2.62489 -26.1717 13.6458 -0.047 -4.849 -56.1327 20.0372 -12.7061 28.3255 -0.9759 2.2888 -1.77754 -23.2364 -48.114 22.1583 -0.53 10.8316 0.718287 -0.283422 0.0148817 0.786 0.112 2.5817 -3.18055e-015 -7.95139e-015 -3.18055e-015 0.3601 -0.878 4.2331 -3.85214e-009 1.2985e-007 3.518e-007 1.8127 -1.216 2.2227 -3.18055e-015 -1.59028e-015 -3.18055e-015 0.9571 1.114 1.7695 -6.36111e-015 -7.95139e-015 -3.18055e-015 4.1246 0.487 4.1451 -1.27222e-014 1.59028e-015 6.36111e-015 3.4052 -1.454 2.7682 -3.85213e-009 1.2985e-007 3.518e-007 1.4531 -1.795 1.2713 -1.76556e-031 -3.18055e-015 -3.18055e-015 5.6954 0.21 2.1184 -1.27222e-014 1.59028e-015 6.36111e-015 3.9766 -1.54 2.3863 -3.85213e-009 1.2985e-007 3.518e-007 1.4042 -1.926 1.125 -1.76556e-031 -3.18055e-015 -3.18055e-015 2.0956 0.66 -0.3894 -6.36111e-015 -7.95139e-015 -3.18055e-015 5.0395 -0.09 2.4971 -1.27222e-014 1.59028e-015 6.36111e-015 3.7921 -1.552 1.4806 -3.85213e-009 1.2985e-007 3.518e-007 1.4655 -1.808 0.9609 -1.76556e-031 -3.18055e-015 -3.18055e-015 4.9141 -1.269 0.3591 -1.27222e-014 1.59028e-015 6.36111e-015 3.1477 -1.685 0.8462 -3.85213e-009 1.2985e-007 3.518e-007 0.8055 -1.585 0.7955 -1.76556e-031 -3.18055e-015 -3.18055e-015 -1.7069 20.075 5.0056 35.3319 9.97677 29.1157 -13.6458 -0.047 -4.849 36.7279 3.32647 -13.7602 -28.3255 -0.9759 2.2888 -48.6631 -32.4927 10.7135 -22.1583 -0.53 10.8316 11.1237 -13.1959 -0.244513 -0.786 0.112 2.5817 -6.8945e-007 -3.81664e-007 -3.2171e-007 -0.3601 -0.878 4.2331 6.36111e-015 0 -4.77083e-015 -1.8127 -1.216 2.2227 -6.8945e-007 -3.81664e-007 -3.2171e-007 -0.9571 1.114 1.7695 -3.18055e-015 1.59028e-015 3.18055e-015 -4.1246 0.487 4.1451 -6.8945e-007 -3.81664e-007 -3.2171e-007 -3.4052 -1.454 2.7682 -3.18055e-015 -3.18055e-015 -7.95139e-015 -1.4531 -1.795 1.2713 -6.8945e-007 -3.81664e-007 -3.2171e-007 -5.6954 0.21 2.1184 -6.8945e-007 -3.81664e-007 -3.2171e-007 -3.9766 -1.54 2.3863 -3.18055e-015 -3.18055e-015 -7.95139e-015 -1.4042 -1.926 1.125 -6.8945e-007 -3.81664e-007 -3.2171e-007 -2.0956 0.66 -0.3894 -3.18055e-015 1.59028e-015 3.18055e-015 -5.0395 -0.09 2.4971 -6.8945e-007 -3.81664e-007 -3.2171e-007 -3.7921 -1.552 1.4806 -3.18055e-015 -3.18055e-015 -7.95139e-015 -1.4655 -1.808 0.9609 -6.8945e-007 -3.81664e-007 -3.2171e-007 -4.9141 -1.269 0.3592 -6.8945e-007 -3.81664e-007 -3.2171e-007 -3.1477 -1.685 0.8462 -3.18055e-015 -3.18055e-015 -7.95139e-015 -0.8055 -1.585 0.7955 -6.8945e-007 -3.81664e-007 -3.2171e-007 8.367 -8.2066 0.5982 -14.5834 -37.0014 -2.6525 2.1923 -43.463 -0.4932 -2.22504 41.3695 3.62178 0.7333 -45.8593 -2.6451 11.1918 30.3434 -3.21215 -8.367 -8.2066 0.5982 -1.48397 -21.37 -2.05051 -2.1923 -43.463 -0.4931 1.75672 29.3224 -2.55399 -0.7333 -45.8593 -2.6451 -10.7806 33.8369 3.58449 
